<svg width="40" height="40" fill="none" xmlns="http://www.w3.org/2000/svg"><circle cx="20" cy="20" r="19.5" stroke="url('#paint0_linear_1282_52')"/><g clip-path="url('#clip0_1282_52')"><path d="M28.25 21.082V27h-2.624v-5.188c0-.655 0-1.53-.281-2.239a2.092 2.092 0 0 0-.74-.972c-.365-.254-.82-.382-1.365-.382-.537 0-.996.105-1.378.316a2.169 2.169 0 0 0-.855.869c-.374.678-.443 1.54-.443 2.311V27H17.94V16.316h2.48v1.594H21.271l.14-.267c.402-.762 1.42-1.62 2.99-1.62 1.713 0 2.615.553 3.128 1.368.546.868.72 2.131.72 3.69ZM14.667 27h-2.629V16.316h2.629V27ZM13.35 13.723c-.878 0-1.601-.732-1.601-1.622a1.601 1.601 0 0 1 3.203 0c0 .89-.724 1.621-1.602 1.621Z" stroke="url('#paint1_linear_1282_52')"/></g><defs><linearGradient id="paint0_linear_1282_52" x1="-.797" y1="14.444" x2="35.784" y2="14.462" gradientUnits="userSpaceOnUse"><stop stop-color="#00C5EB"/><stop offset="1" stop-color="#B544FE"/></linearGradient><linearGradient id="paint1_linear_1282_52" x1="10.901" y1="16.319" x2="26.905" y2="16.327" gradientUnits="userSpaceOnUse"><stop stop-color="#00C5EB"/><stop offset="1" stop-color="#B544FE"/></linearGradient><clipPath id="clip0_1282_52"><path fill="#fff" transform="translate(10 10)" d="M0 0h20v20H0z"/></clipPath></defs></svg>