<svg width="40" height="40" fill="none" xmlns="http://www.w3.org/2000/svg"><circle cx="20" cy="20" r="20" fill="url('#paint0_linear_1282_26')"/><g clip-path="url('#clip0_1282_26')"><path d="M15.168 27.5h-3.629V15.816h3.629V27.5ZM13.35 14.223c-1.16 0-2.101-.962-2.101-2.122a2.102 2.102 0 0 1 4.203 0c0 1.16-.942 2.121-2.102 2.121ZM28.746 27.5h-3.62v-5.688c0-1.355-.027-3.093-1.886-3.093-1.886 0-2.176 1.472-2.176 2.996V27.5H17.44V15.816h3.48v1.594h.05c.484-.918 1.668-1.887 3.433-1.887 3.671 0 4.346 2.418 4.346 5.559V27.5h-.003Z" fill="#fff"/></g><defs><linearGradient id="paint0_linear_1282_26" x1="-.797" y1="14.444" x2="35.784" y2="14.462" gradientUnits="userSpaceOnUse"><stop stop-color="#00C5EB"/><stop offset="1" stop-color="#B544FE"/></linearGradient><clipPath id="clip0_1282_26"><path fill="#fff" transform="translate(10 10)" d="M0 0h20v20H0z"/></clipPath></defs></svg>