<svg xmlns="http://www.w3.org/2000/svg" aria-hidden="true" style="position:absolute;width:0;height:0;overflow:hidden">
  <defs>
    <symbol id="icon-android" viewBox="0 0 32 32">
      <path d="M32 16c0 8.837-7.163 16-16 16S0 24.837 0 16 7.163 0 16 0s16 7.163 16 16z" style="fill:var(--color1, #000)"/>
      <path fill="#fff" d="M10.623 20.922c0 .501.425.911.947.911h1.082v2.58c0 .654.545 1.187 1.214 1.187a1.2 1.2 0 0 0 1.214-1.187v-2.582h1.889v2.58c0 .654.545 1.187 1.214 1.187a1.2 1.2 0 0 0 1.214-1.187v-2.58h1.082c.522 0 .947-.409.947-.911v-8.468H10.623v8.47zM18.56 8.064l.998-1.393c.058-.081.044-.191-.033-.244-.078-.051-.189-.026-.247.056l-1.036 1.448c-.682-.259-1.443-.403-2.241-.403s-1.558.144-2.241.403l-1.036-1.446c-.058-.081-.169-.109-.247-.056-.078.051-.091.159-.033.244l.998 1.393c-1.587.711-2.698 2.059-2.841 3.634h10.803c-.147-1.577-1.26-2.925-2.845-3.636zm-4.839 2.196c-.118 0-.234-.034-.332-.097s-.175-.153-.22-.259a.56.56 0 0 1 .13-.628.616.616 0 0 1 .919.087.56.56 0 0 1-.075.727.609.609 0 0 1-.422.169zm4.633 0c-.118 0-.234-.034-.332-.097s-.175-.153-.22-.259a.56.56 0 0 1 .13-.628.62.62 0 0 1 .652-.125c.109.044.203.117.268.212s.101.206.101.32c0 .153-.064.299-.176.407s-.264.169-.422.169zm4.965 2.158a1.2 1.2 0 0 0-1.214 1.187v4.637c0 .654.545 1.187 1.214 1.187a1.2 1.2 0 0 0 1.214-1.187v-4.639c.002-.656-.54-1.185-1.214-1.185zm-14.639 0a1.2 1.2 0 0 0-1.214 1.187v4.637c0 .654.545 1.187 1.214 1.187a1.2 1.2 0 0 0 1.214-1.187v-4.639c0-.656-.545-1.185-1.214-1.185z" style="fill:var(--color2, #fff)"/>
    </symbol>
    <symbol id="icon-app" viewBox="0 0 32 32">
      <path fill="#fff" d="M26.706 9.022c.187.188.294.441.294.706V29a1 1 0 0 1-1 1H6a1 1 0 0 1-1-1V3a1 1 0 0 1 1-1h13.272c.266 0 .522.106.709.294l6.725 6.728zm-2.012 1.166-5.881-5.881v5.881h5.881zM10 15.063a.25.25 0 0 0-.25.25v1.5a.25.25 0 0 0 .25.25h12a.25.25 0 0 0 .25-.25v-1.5a.25.25 0 0 0-.25-.25H10zm0 4.249a.25.25 0 0 0-.25.25v1.5a.25.25 0 0 0 .25.25h5.75a.25.25 0 0 0 .25-.25v-1.5a.25.25 0 0 0-.25-.25H10z" style="fill:var(--color2, #fff)"/>
    </symbol>
    <symbol id="icon-apple" viewBox="0 0 32 32">
      <path d="M32 16c0 8.837-7.163 16-16 16S0 24.837 0 16 7.163 0 16 0s16 7.163 16 16z" style="fill:var(--color1, #000)"/>
      <path fill="#fff" d="M19.883 10.667c-1.68 0-2.39.807-3.561.807-1.2 0-2.115-.802-3.571-.802-1.425 0-2.945.876-3.91 2.369-1.355 2.105-1.125 6.069 1.07 9.446.785 1.209 1.834 2.565 3.209 2.579h.025c1.195 0 1.55-.788 3.195-.797h.025c1.62 0 1.945.793 3.136.793h.025c1.375-.015 2.48-1.517 3.265-2.721.565-.866.775-1.301 1.209-2.281-3.175-1.214-3.685-5.746-.545-7.483-.959-1.208-2.305-1.908-3.575-1.908l.004-.002zM19.699 6.4c-.967.065-2.096.67-2.757 1.459-.6.716-1.093 1.778-.9 2.807h.077c1.03 0 2.085-.609 2.7-1.39.593-.743 1.043-1.796.879-2.877z" style="fill:var(--color2, #fff)"/>
    </symbol>
    <symbol id="icon-author" viewBox="0 0 32 32">
      <path fill="#fff" d="M26.749 24.93a13.99 13.99 0 1 0-24.748-8.932 13.902 13.902 0 0 0 3.251 8.93l-.02.017c.07.084.15.156.222.239.09.103.187.2.28.3.28.304.568.596.87.87.092.084.187.162.28.242.32.276.649.538.99.782.044.03.084.069.128.1v-.012a13.902 13.902 0 0 0 16 0v.012c.044-.031.083-.07.128-.1.34-.245.67-.506.99-.782.093-.08.188-.159.28-.242.302-.275.59-.566.87-.87.093-.1.189-.197.28-.3.071-.083.152-.155.222-.24l-.022-.016zM16 8a4.503 4.503 0 0 1 4.157 2.778 4.502 4.502 0 0 1-3.28 6.136 4.502 4.502 0 0 1-5.378-4.413 4.5 4.5 0 0 1 4.5-4.5zM8.007 24.93A4.995 4.995 0 0 1 13 20h6a4.998 4.998 0 0 1 4.993 4.93 11.942 11.942 0 0 1-15.986 0z" style="fill:var(--color2, #fff)"/>
    </symbol>
    <symbol id="icon-Burger" viewBox="0 0 32 32">
      <path fill="none" stroke="#fff" stroke-linecap="round" stroke-width="2.462" d="M1.231 7.385h29.538M1.231 16h29.538M1.231 24.615h29.538" style="stroke:var(--color2, #fff)"/>
    </symbol>
    <symbol id="icon-close" viewBox="0 0 32 32">
      <path fill="#fff" d="M23.884 6.706 16 14.59 8.116 6.706a.995.995 0 0 0-1.38.031 1 1 0 0 0-.031 1.38l7.88 7.884-7.882 7.882a1.002 1.002 0 0 0-.018 1.427.998.998 0 0 0 1.427-.015l7.886-7.882 7.884 7.884a1 1 0 0 0 1.38-.03 1 1 0 0 0 .03-1.38l-7.884-7.884 7.884-7.886a1.002 1.002 0 0 0 .018-1.427.998.998 0 0 0-1.427.015v.002z" style="fill:var(--color2, #fff)"/>
    </symbol>
    <symbol id="icon-data" viewBox="0 0 32 32">
      <path fill="#fff" d="M28 26.667V8a2.67 2.67 0 0 0-2.667-2.667h-2.667V2.666h-2.667v2.667h-8V2.666H9.332v2.667H6.665A2.67 2.67 0 0 0 3.998 8v18.667a2.67 2.67 0 0 0 2.667 2.667h18.667a2.67 2.67 0 0 0 2.667-2.667zM12 24H9.333v-2.667H12V24zm0-5.333H9.333V16H12v2.667zM17.333 24h-2.667v-2.667h2.667V24zm0-5.333h-2.667V16h2.667v2.667zM22.667 24H20v-2.667h2.667V24zm0-5.333H20V16h2.667v2.667zM25.333 12H6.666V9.333h18.667V12z" style="fill:var(--color2, #fff)"/>
    </symbol>
    <symbol id="icon-download" viewBox="0 0 32 32">
      <path fill="#fff" d="M18.013 8.5V0H5.434c-.836 0-1.509.669-1.509 1.5v29c0 .831.673 1.5 1.509 1.5h21.132c.836 0 1.509-.669 1.509-1.5V10h-8.553c-.83 0-1.509-.675-1.509-1.5zm4.808 13.21-6.064 5.981a1.077 1.077 0 0 1-1.512 0L9.181 21.71c-.638-.629-.191-1.71.708-1.71h4.099v-5c0-.553.45-1 1.006-1h2.013c.556 0 1.006.447 1.006 1v5h4.099c.898 0 1.346 1.081.709 1.71zm4.814-15.147L21.478.438A1.515 1.515 0 0 0 20.409 0h-.384v8h8.05v-.381c0-.394-.157-.775-.44-1.056z" style="fill:var(--color2, #fff)"/>
    </symbol>
    <symbol id="icon-download-mini" viewBox="0 0 32 32">
      <path fill="#fff" d="M13.5 0h5c.831 0 1.5.669 1.5 1.5V12h5.481c1.112 0 1.669 1.344.881 2.131l-9.506 9.513a1.21 1.21 0 0 1-1.706 0l-9.519-9.513C4.844 13.344 5.4 12 6.512 12H12V1.5c0-.831.669-1.5 1.5-1.5zM32 23.5v7c0 .831-.669 1.5-1.5 1.5h-29C.669 32 0 31.331 0 30.5v-7c0-.831.669-1.5 1.5-1.5h9.169l3.062 3.063a3.204 3.204 0 0 0 4.538 0L21.331 22H30.5c.831 0 1.5.669 1.5 1.5zM24.25 29c0-.688-.563-1.25-1.25-1.25s-1.25.563-1.25 1.25c0 .688.563 1.25 1.25 1.25s1.25-.563 1.25-1.25zm4 0c0-.688-.563-1.25-1.25-1.25s-1.25.563-1.25 1.25c0 .688.563 1.25 1.25 1.25s1.25-.563 1.25-1.25z" style="fill:var(--color2, #fff)"/>
    </symbol>
    <symbol id="icon-facebook" viewBox="0 0 32 32">
<path d="M22.4 2.666h-4c-1.768 0-3.464 0.702-4.714 1.953s-1.953 2.946-1.953 4.714v4h-4v5.333h4v10.667h5.333v-10.667h4l1.333-5.333h-5.333v-4c0-0.354 0.14-0.693 0.391-0.943s0.589-0.391 0.943-0.391h4v-5.333z"></path>
</symbol>
    <symbol id="icon-language" viewBox="0 0 32 32">
      <path fill="#fff" d="M16 29.333c-1.822 0-3.544-.35-5.167-1.051s-3.039-1.655-4.249-2.867c-1.212-1.211-2.167-2.627-2.867-4.249s-1.051-3.344-1.051-5.167c0-1.844.35-3.572 1.051-5.183s1.655-3.023 2.867-4.233c1.211-1.212 2.627-2.168 4.249-2.868S14.177 2.666 16 2.666c1.844 0 3.572.35 5.183 1.049a13.536 13.536 0 0 1 7.1 7.101c.7 1.611 1.051 3.338 1.051 5.183 0 1.822-.35 3.544-1.051 5.167s-1.655 3.039-2.867 4.249c-1.211 1.212-2.622 2.167-4.233 2.867S17.845 29.333 16 29.333zm0-2.733c.578-.8 1.078-1.633 1.5-2.5s.767-1.789 1.033-2.767h-5.067c.267.978.611 1.9 1.033 2.767s.922 1.7 1.5 2.5zm-3.466-.533c-.4-.733-.75-1.495-1.049-2.284s-.551-1.605-.751-2.449H6.801c.644 1.111 1.45 2.078 2.416 2.9s2.073 1.433 3.317 1.833zm6.933 0c1.244-.4 2.35-1.011 3.316-1.833s1.773-1.789 2.417-2.9h-3.933c-.2.844-.45 1.661-.749 2.449s-.651 1.551-1.051 2.284zm-13.8-7.4H10.2a17.269 17.269 0 0 1-.2-2.666c0-.467.016-.916.049-1.349s.084-.873.151-1.317H5.667a10.52 10.52 0 0 0-.334 2.666 10.693 10.693 0 0 0 .334 2.666zm7.2 0h6.267c.067-.444.117-.884.151-1.317.033-.433.049-.883.049-1.349s-.016-.916-.049-1.349a18.515 18.515 0 0 0-.151-1.317h-6.267a17.996 17.996 0 0 0-.149 4.015c.034.433.083.873.149 1.317zm8.933 0h4.533a10.52 10.52 0 0 0 .334-2.666 10.693 10.693 0 0 0-.334-2.666H21.8a17.996 17.996 0 0 1 .149 4.015c-.033.434-.083.873-.149 1.317zm-.533-8H25.2c-.644-1.111-1.45-2.078-2.417-2.9s-2.072-1.433-3.316-1.833c.4.733.75 1.494 1.051 2.283s.549 1.606.749 2.451zm-7.8 0h5.067c-.267-.978-.611-1.9-1.033-2.767s-.922-1.7-1.5-2.5c-.578.8-1.078 1.633-1.5 2.5s-.767 1.789-1.033 2.767zm-6.667 0h3.933c.2-.844.45-1.661.751-2.451s.649-1.549 1.049-2.283c-1.244.4-2.35 1.011-3.317 1.833s-1.772 1.789-2.416 2.9z" style="fill:var(--color2, #fff)"/>
    </symbol>
    <symbol id="icon-li" viewBox="0 0 32 32">
      <path fill="#fff" d="m9.6 24 8-8-8-8 1.6-3.2L22.4 16 11.2 27.2 9.6 24z" style="fill:var(--color2, #fff)"/>
    </symbol>
    <symbol id="icon-license" viewBox="0 0 32 32">
      <path fill="#fff" d="M11 18.876V17h2v1.876c0 .164.02.327.06.486l.8 3.196-1.86 1.24-1.86-1.24.8-3.196c.04-.159.06-.322.06-.486z" style="fill:var(--color2, #fff)"/>
      <path fill="#fff" d="M18.586 0H8a4.003 4.003 0 0 0-4 4v24a4.003 4.003 0 0 0 4 4h16a4.003 4.003 0 0 0 4-4V9.414A2 2 0 0 0 27.414 8L20 .586A2 2 0 0 0 18.586 0zM19 7V3l6 6h-4a2 2 0 0 1-2-2zm-8-1V4H9V2h3v2h2v2h-2v2h2v2h-2v2h2v2h-3v-2H9v-2h2V8H9V6h2zm0 9h2a2 2 0 0 1 2 2v1.876l.8 3.198a1.998 1.998 0 0 1-.832 2.148l-1.86 1.24a1.997 1.997 0 0 1-2.218 0l-1.86-1.24a2.005 2.005 0 0 1-.83-2.149l.8-3.198v-1.876a2 2 0 0 1 2-2z" style="fill:var(--color2, #fff)"/>
    </symbol>
    <symbol id="icon-linkedin" viewBox="0 0 32 32">
<path d="M8.269 28h-5.806v-18.694h5.806v18.694zM5.36 6.757c-1.856 0-3.362-1.539-3.362-3.395s1.505-3.362 3.362-3.362 3.362 1.505 3.362 3.362v0c0 1.856-1.504 3.395-3.36 3.395zM29.994 28h-5.792v-9.101c0-2.168-0.043-4.949-3.018-4.949-3.018 0-3.482 2.355-3.482 4.794v9.256h-5.798v-18.694h5.568v2.55h0.080c0.774-1.469 2.667-3.019 5.491-3.019 5.875 0 6.955 3.869 6.955 8.894v10.269h-0.005z"></path>
</symbol>
    <symbol id="icon-mark" viewBox="0 0 32 32">
      <path fill="#fff" d="M7.381 29.181a1.343 1.343 0 0 0 1.378-.085l17.333-12a1.33 1.33 0 0 0 .422-1.715 1.327 1.327 0 0 0-.422-.477l-17.333-12a1.337 1.337 0 0 0-1.377-.084 1.34 1.34 0 0 0-.715 1.181v24a1.333 1.333 0 0 0 .715 1.181z" style="fill:var(--color2, #fff)"/>
    </symbol>
    <symbol id="icon-OC" viewBox="0 0 32 32">
      <path fill="#fff" d="M28.005 2.672h-24a2.674 2.674 0 0 0-2.666 2.666v16a2.674 2.674 0 0 0 2.666 2.666h9.333v2.667h-2.667v2.667h10.667v-2.667h-2.667v-2.667h9.333a2.674 2.674 0 0 0 2.666-2.666v-16a2.674 2.674 0 0 0-2.666-2.666zM14.341 18.227h-.001l-6.333-6.333 1.887-1.884 4.448 4.448 7.78-7.781 1.887 1.887-9.667 9.664z" style="fill:var(--color2, #fff)"/>
    </symbol>
    <symbol id="icon-romb" viewBox="0 0 32 32">
      <path d="M0 0h32v32H0V0z"/>
    </symbol>

    <symbol id="icon-twitter" viewBox="0 0 32 32">
<path d="M30.134 5.599c-1.184 0.835-2.495 1.474-3.882 1.892-0.744-0.856-1.734-1.463-2.835-1.738s-2.26-0.206-3.32 0.198c-1.060 0.405-1.97 1.125-2.608 2.064s-0.971 2.051-0.956 3.185v1.236c-2.173 0.056-4.326-0.426-6.267-1.403s-3.611-2.419-4.86-4.198c0 0-4.945 11.127 6.182 16.073-2.546 1.728-5.58 2.595-8.655 2.473 11.127 6.182 24.727 0 24.727-14.218-0.001-0.344-0.034-0.688-0.099-1.026 1.262-1.244 2.152-2.816 2.572-4.537z"></path>
</symbol>

<symbol id="icon-close" viewBox="0 0 32 32">
<path fill="#fff" style="fill: var(--color1, #fff)" d="M23.884 6.706l-7.884 7.884-7.884-7.884c-0.19-0.174-0.439-0.267-0.696-0.261s-0.502 0.11-0.684 0.292c-0.182 0.182-0.286 0.427-0.292 0.684s0.088 0.506 0.261 0.696l7.88 7.884-7.882 7.882c-0.096 0.092-0.173 0.202-0.226 0.324s-0.081 0.253-0.083 0.386 0.023 0.265 0.073 0.388c0.050 0.123 0.124 0.235 0.218 0.329s0.206 0.169 0.329 0.219 0.255 0.075 0.388 0.074c0.133-0.002 0.264-0.029 0.386-0.082s0.232-0.13 0.324-0.226l7.886-7.882 7.884 7.884c0.19 0.174 0.439 0.267 0.696 0.262s0.502-0.11 0.684-0.292c0.182-0.182 0.286-0.427 0.292-0.684s-0.088-0.506-0.262-0.696l-7.884-7.884 7.884-7.886c0.096-0.092 0.173-0.202 0.226-0.324s0.081-0.253 0.083-0.386c0.002-0.133-0.023-0.265-0.073-0.388s-0.124-0.235-0.218-0.329c-0.094-0.094-0.206-0.169-0.329-0.219s-0.255-0.075-0.388-0.074-0.264 0.029-0.386 0.082c-0.122 0.053-0.232 0.13-0.324 0.226v0.002z"></path>
</symbol>

  </defs>
</svg>
