<svg width="60" height="60" viewBox="0 0 60 60" fill="none" xmlns="http://www.w3.org/2000/svg">
<g clip-path="url(#clip0_135_655)">
<circle cx="29.9995" cy="30" r="30" fill="url(#paint0_linear_135_655)"/>
<path d="M19.9177 39.2294C19.9177 40.1695 20.7138 40.9369 21.6932 40.9369H23.7229V45.7742C23.7229 46.9996 24.744 48 25.9985 48C27.2571 48 28.2741 47.0036 28.2741 45.7742V40.9329H31.8166V45.7702C31.8166 46.9956 32.8377 47.996 34.0922 47.996C35.3509 47.996 36.3678 46.9996 36.3678 45.7702V40.9329H38.3975C39.3769 40.9329 40.173 40.1655 40.173 39.2254V23.3475H19.9177V39.2294ZM34.8008 15.1193L36.6721 12.5078C36.7804 12.3552 36.7554 12.1503 36.6096 12.0498C36.4637 11.9534 36.2553 12.0016 36.1469 12.1543L34.2048 14.8702C32.9253 14.3841 31.4999 14.1149 30.0037 14.1149C28.5074 14.1149 27.0821 14.3841 25.8026 14.8702L23.8604 12.1583C23.752 12.0056 23.5437 11.9534 23.3978 12.0538C23.2519 12.1503 23.2269 12.3511 23.3353 12.5118L25.2066 15.1233C22.2308 16.4572 20.1469 18.9843 19.8802 21.9373H40.1355C39.8604 18.9803 37.7724 16.4532 34.8008 15.1193ZM25.7276 19.2374C25.5058 19.2374 25.2891 19.1741 25.1047 19.0553C24.9203 18.9365 24.7766 18.7678 24.6918 18.5703C24.6069 18.3728 24.5847 18.1555 24.628 17.9458C24.6712 17.7362 24.778 17.5436 24.9348 17.3925C25.0916 17.2413 25.2914 17.1384 25.5088 17.0967C25.7263 17.055 25.9517 17.0764 26.1566 17.1582C26.3615 17.24 26.5366 17.3785 26.6597 17.5562C26.7829 17.734 26.8487 17.9429 26.8487 18.1567C26.8479 18.4431 26.7295 18.7176 26.5195 18.9201C26.3094 19.1226 26.0247 19.2367 25.7276 19.2374ZM34.4132 19.2374C34.1914 19.2374 33.9747 19.1741 33.7903 19.0553C33.6059 18.9365 33.4622 18.7678 33.3774 18.5703C33.2925 18.3728 33.2703 18.1555 33.3136 17.9458C33.3568 17.7362 33.4636 17.5436 33.6204 17.3925C33.7772 17.2413 33.977 17.1384 34.1944 17.0967C34.4119 17.055 34.6373 17.0764 34.8422 17.1582C35.047 17.24 35.2221 17.3785 35.3453 17.5562C35.4685 17.734 35.5343 17.9429 35.5343 18.1567C35.5335 18.4431 35.4151 18.7176 35.2051 18.9201C34.995 19.1226 34.7103 19.2367 34.4132 19.2374ZM43.7239 23.2832C42.4652 23.2832 41.4483 24.2796 41.4483 25.509V34.2033C41.4483 35.4287 42.4694 36.4291 43.7239 36.4291C44.9826 36.4291 45.9995 35.4327 45.9995 34.2033V25.505C46.0037 24.2756 44.9867 23.2832 43.7239 23.2832ZM16.2751 23.2832C15.0164 23.2832 13.9995 24.2796 13.9995 25.509V34.2033C13.9995 35.4287 15.0206 36.4291 16.2751 36.4291C17.5338 36.4291 18.5507 35.4327 18.5507 34.2033V25.505C18.5507 24.2756 17.5296 23.2832 16.2751 23.2832Z" fill="white"/>
</g>
<defs>
<linearGradient id="paint0_linear_135_655" x1="-1.1958" y1="21.6665" x2="53.6754" y2="21.6929" gradientUnits="userSpaceOnUse">
<stop stop-color="#00C5EB"/>
<stop offset="1" stop-color="#B544FE"/>
</linearGradient>
<clipPath id="clip0_135_655">
<rect width="60" height="60" fill="white" transform="translate(-0.000488281)"/>
</clipPath>
</defs>
</svg>
