<svg width="60" height="60" viewBox="0 0 60 60" fill="none" xmlns="http://www.w3.org/2000/svg">
<g clip-path="url(#clip0_135_707)">
<circle cx="29.9995" cy="30" r="30" fill="url(#paint0_linear_135_707)"/>
</g>
<path d="M37.2815 20C34.1308 20 32.7993 21.5138 30.6051 21.5138C28.3554 21.5138 26.6394 20.011 23.9091 20.011C21.2367 20.011 18.3869 21.6538 16.5771 24.4524C14.0359 28.3989 14.4673 35.8316 18.583 42.1637C20.0552 44.4304 22.0212 46.9725 24.5999 47H24.6468C26.8879 47 27.5536 45.5224 30.6379 45.5051H30.6848C33.7229 45.5051 34.3324 46.9913 36.5641 46.9913H36.611C39.1897 46.9638 41.2612 44.1471 42.7334 41.8891C43.793 40.2651 44.1868 39.45 44.9995 37.6129C39.0459 35.3375 38.0895 26.8395 43.9774 23.5814C42.1802 21.3155 39.6546 20.0031 37.2737 20.0031L37.2815 20Z" fill="white"/>
<path d="M36.9353 12C35.1216 12.121 33.0056 13.2553 31.7662 14.7362C30.6417 16.0783 29.7168 18.0692 30.0795 20H30.2246C32.1562 20 34.1331 18.8576 35.2879 17.3937C36.4003 16.0004 37.2436 14.0258 36.9353 12Z" fill="white"/>
<defs>
<linearGradient id="paint0_linear_135_707" x1="-1.1958" y1="21.6665" x2="53.6754" y2="21.6929" gradientUnits="userSpaceOnUse">
<stop stop-color="#00C5EB"/>
<stop offset="1" stop-color="#B544FE"/>
</linearGradient>
<clipPath id="clip0_135_707">
<rect width="60" height="60" fill="white" transform="translate(-0.000488281)"/>
</clipPath>
</defs>
</svg>
