<svg width="80" height="106" viewBox="0 0 80 106" fill="none" xmlns="http://www.w3.org/2000/svg">
<g clip-path="url(#clip0_313_50)">
<path d="M46.6667 28.1562V0H5C2.22917 0 0 2.21523 0 4.96875V101.031C0 103.785 2.22917 106 5 106H75C77.7708 106 80 103.785 80 101.031V33.125H51.6667C48.9167 33.125 46.6667 30.8891 46.6667 28.1562ZM62.5938 71.9144L42.5062 91.7273C41.1208 93.0957 38.8833 93.0957 37.4979 91.7273L17.4104 71.9144C15.2958 69.8296 16.7792 66.25 19.7542 66.25H33.3333V49.6875C33.3333 47.8573 34.825 46.375 36.6667 46.375H43.3333C45.175 46.375 46.6667 47.8573 46.6667 49.6875V66.25H60.2458C63.2208 66.25 64.7042 69.8296 62.5938 71.9144ZM78.5417 21.7383L58.1458 1.44922C57.2083 0.517578 55.9375 0 54.6042 0H53.3333V26.5H80V25.2371C80 23.9328 79.4792 22.6699 78.5417 21.7383Z" fill="white"/>
</g>
<defs>
<clipPath id="clip0_313_50">
<rect width="80" height="106" fill="white"/>
</clipPath>
</defs>
</svg>
