<svg width="40" height="40" viewBox="0 0 40 40" fill="none" xmlns="http://www.w3.org/2000/svg">
<circle cx="20" cy="20" r="19.5" stroke="url(#paint0_linear_1282_52)"/>
<g clip-path="url(#clip0_1282_52)">
<path d="M28.2494 21.0819V27H25.6262V21.8125C25.6262 21.1565 25.6258 20.282 25.345 19.5731C25.1989 19.2043 24.9685 18.855 24.6049 18.6014C24.2403 18.3471 23.7845 18.2188 23.24 18.2188C22.7035 18.2188 22.2442 18.3237 21.8621 18.5352C21.4772 18.7483 21.2006 19.0531 21.007 19.404C20.6329 20.0823 20.5644 20.9439 20.5644 21.715V27H17.94V16.3162H20.4194V17.41V17.91H20.9194H20.97H21.2715L21.4122 17.6433C21.8142 16.8813 22.8317 16.0231 24.4025 16.0231C26.1151 16.0231 27.0167 16.5762 27.5298 17.3911C28.0762 18.2591 28.2494 19.5224 28.2494 21.0819ZM14.6675 27H12.0394V16.3162H14.6675V27ZM13.3512 13.7225C12.4735 13.7225 11.75 12.9913 11.75 12.1012C11.75 11.6766 11.9187 11.2693 12.219 10.969C12.5193 10.6687 12.9266 10.5 13.3512 10.5C13.7759 10.5 14.1832 10.6687 14.4835 10.969C14.7838 11.2693 14.9525 11.6766 14.9525 12.1012C14.9525 12.9913 14.229 13.7225 13.3512 13.7225Z" stroke="url(#paint1_linear_1282_52)"/>
</g>
<defs>
<linearGradient id="paint0_linear_1282_52" x1="-0.796875" y1="14.4443" x2="35.7839" y2="14.4619" gradientUnits="userSpaceOnUse">
<stop stop-color="#00C5EB"/>
<stop offset="1" stop-color="#B544FE"/>
</linearGradient>
<linearGradient id="paint1_linear_1282_52" x1="10.9014" y1="16.3194" x2="26.9049" y2="16.3271" gradientUnits="userSpaceOnUse">
<stop stop-color="#00C5EB"/>
<stop offset="1" stop-color="#B544FE"/>
</linearGradient>
<clipPath id="clip0_1282_52">
<rect width="20" height="20" fill="white" transform="translate(10 10)"/>
</clipPath>
</defs>
</svg>
