<svg width="20" height="20" viewBox="0 0 20 20" fill="none" xmlns="http://www.w3.org/2000/svg">
<path d="M18.8335 3.49947C18.0935 4.02143 17.2742 4.42064 16.4071 4.68174C15.9418 4.14664 15.3233 3.76737 14.6353 3.59523C13.9473 3.42309 13.2231 3.46639 12.5606 3.71927C11.898 3.97216 11.3291 4.42242 10.9308 5.00916C10.5325 5.5959 10.324 6.29082 10.3335 6.99992V7.77265C8.97553 7.80786 7.62994 7.50669 6.41655 6.89595C5.20316 6.28521 4.15965 5.38387 3.37895 4.2722C3.37895 4.2722 0.288042 11.2267 7.24259 14.3177C5.65118 15.3979 3.75539 15.9396 1.8335 15.8631C8.78804 19.7267 17.288 15.8631 17.288 6.97674C17.2873 6.7615 17.2666 6.54679 17.2262 6.33538C18.0149 5.55762 18.5714 4.57566 18.8335 3.49947Z" fill="white"/>
</svg>
